<svg width="21" height="20" viewBox="0 0 21 20" fill="none" xmlns="http://www.w3.org/2000/svg">
<path d="M19.2852 6.25V4.375C19.2852 3.87772 19.0876 3.40081 18.736 3.04917C18.3844 2.69754 17.9074 2.5 17.4102 2.5H14.9102V1.875C14.9102 1.70924 14.8443 1.55027 14.7271 1.43306C14.6099 1.31585 14.4509 1.25 14.2852 1.25C14.1194 1.25 13.9604 1.31585 13.8432 1.43306C13.726 1.55027 13.6602 1.70924 13.6602 1.875V2.5H7.41016V1.875C7.41016 1.70924 7.34431 1.55027 7.2271 1.43306C7.10989 1.31585 6.95092 1.25 6.78516 1.25C6.6194 1.25 6.46042 1.31585 6.34321 1.43306C6.226 1.55027 6.16016 1.70924 6.16016 1.875V2.5H3.66016C3.16288 2.5 2.68596 2.69754 2.33433 3.04917C1.9827 3.40081 1.78516 3.87772 1.78516 4.375V6.25H19.2852Z" fill="#009ED7"/>
<path d="M1.78516 7.5V16.875C1.78516 17.3723 1.9827 17.8492 2.33433 18.2008C2.68596 18.5525 3.16288 18.75 3.66016 18.75H17.4102C17.9074 18.75 18.3844 18.5525 18.736 18.2008C19.0876 17.8492 19.2852 17.3723 19.2852 16.875V7.5H1.78516ZM14.0664 11.0994L9.69141 14.8494C9.57182 14.9516 9.41807 15.005 9.26086 14.9989C9.10364 14.9927 8.95453 14.9275 8.84328 14.8162L6.96828 12.9412C6.85443 12.8234 6.79144 12.6655 6.79286 12.5016C6.79428 12.3378 6.86001 12.181 6.97589 12.0651C7.09177 11.9492 7.24853 11.8835 7.41241 11.8821C7.57628 11.8807 7.73415 11.9437 7.85203 12.0575L9.31828 13.5238L13.2558 10.1488C13.3178 10.0929 13.3903 10.05 13.4691 10.0226C13.5479 9.99524 13.6314 9.98391 13.7146 9.98931C13.7979 9.9947 13.8792 10.0167 13.9538 10.054C14.0284 10.0913 14.0948 10.1432 14.1491 10.2066C14.2033 10.27 14.2443 10.3436 14.2697 10.4231C14.295 10.5026 14.3042 10.5863 14.2967 10.6694C14.2891 10.7525 14.2651 10.8332 14.2258 10.9069C14.1866 10.9805 14.133 11.0455 14.0683 11.0981L14.0664 11.0994Z" fill="#009ED7"/>
</svg>
