<svg width="21" height="20" viewBox="0 0 21 20" fill="none" xmlns="http://www.w3.org/2000/svg">
<path d="M17.4102 2.5H14.9102V1.875C14.9102 1.70924 14.8443 1.55027 14.7271 1.43306C14.6099 1.31585 14.4509 1.25 14.2852 1.25C14.1194 1.25 13.9604 1.31585 13.8432 1.43306C13.726 1.55027 13.6602 1.70924 13.6602 1.875V2.5H7.41016V1.875C7.41016 1.70924 7.34431 1.55027 7.2271 1.43306C7.10989 1.31585 6.95092 1.25 6.78516 1.25C6.6194 1.25 6.46042 1.31585 6.34321 1.43306C6.226 1.55027 6.16016 1.70924 6.16016 1.875V2.5H3.66016C3.16288 2.5 2.68596 2.69754 2.33433 3.04917C1.9827 3.40081 1.78516 3.87772 1.78516 4.375V16.875C1.78516 17.3723 1.9827 17.8492 2.33433 18.2008C2.68596 18.5525 3.16288 18.75 3.66016 18.75H17.4102C17.9074 18.75 18.3844 18.5525 18.736 18.2008C19.0876 17.8492 19.2852 17.3723 19.2852 16.875V4.375C19.2852 3.87772 19.0876 3.40081 18.736 3.04917C18.3844 2.69754 17.9074 2.5 17.4102 2.5ZM3.66016 3.75H17.4102C17.5759 3.75 17.7349 3.81585 17.8521 3.93306C17.9693 4.05027 18.0352 4.20924 18.0352 4.375V6.25H3.03516V4.375C3.03516 4.20924 3.101 4.05027 3.21821 3.93306C3.33542 3.81585 3.4944 3.75 3.66016 3.75ZM17.4102 17.5H3.66016C3.4944 17.5 3.33542 17.4342 3.21821 17.3169C3.101 17.1997 3.03516 17.0408 3.03516 16.875V7.5H18.0352V16.875C18.0352 17.0408 17.9693 17.1997 17.8521 17.3169C17.7349 17.4342 17.5759 17.5 17.4102 17.5Z" fill="#8C9395"/>
<path d="M13.254 9.52539L9.31646 12.9004L7.85021 11.4348C7.73233 11.3209 7.57446 11.2579 7.41058 11.2593C7.24671 11.2608 7.08995 11.3265 6.97407 11.4424C6.85819 11.5583 6.79246 11.715 6.79104 11.8789C6.78962 12.0428 6.85261 12.2006 6.96646 12.3185L8.84146 14.1935C8.95279 14.3047 9.10195 14.3698 9.25916 14.3758C9.41637 14.3818 9.57008 14.3283 9.68959 14.226L14.0646 10.476C14.1304 10.4238 14.1851 10.3588 14.2253 10.285C14.2654 10.2111 14.2903 10.1299 14.2983 10.0463C14.3064 9.96259 14.2975 9.87816 14.2722 9.79801C14.2468 9.71785 14.2056 9.64364 14.1509 9.57979C14.0963 9.51594 14.0293 9.46378 13.954 9.42643C13.8787 9.38908 13.7966 9.3673 13.7127 9.36239C13.6288 9.35749 13.5447 9.36956 13.4656 9.39789C13.3864 9.42622 13.3138 9.47023 13.2521 9.52727L13.254 9.52539Z" fill="#8C9395"/>
</svg>
