<svg width="21" height="20" viewBox="0 0 21 20" fill="none" xmlns="http://www.w3.org/2000/svg">
<path d="M20.0352 8.65999C20.0346 8.65953 20.0341 8.65892 20.0337 8.65846L11.8752 0.500337C11.5275 0.152436 11.0651 -0.0390625 10.5733 -0.0390625C10.0816 -0.0390625 9.61921 0.152436 9.27131 0.500337L1.11715 8.65434C1.1144 8.65709 1.1115 8.65999 1.10891 8.66274C0.394796 9.38097 0.396016 10.5463 1.11242 11.2627C1.43972 11.5901 1.87185 11.7797 2.33404 11.7996C2.35296 11.8015 2.37188 11.8024 2.39095 11.8024H2.71597V17.8061C2.71597 18.9943 3.68277 19.961 4.87097 19.961H8.06281C8.38645 19.961 8.64875 19.6985 8.64875 19.375V14.668C8.64875 14.1259 9.08988 13.6849 9.63203 13.6849H11.5147C12.0568 13.6849 12.4978 14.1259 12.4978 14.668V19.375C12.4978 19.6985 12.7601 19.961 13.0837 19.961H16.2756C17.4639 19.961 18.4306 18.9943 18.4306 17.8061V11.8024H18.7321C19.2237 11.8024 19.6861 11.6109 20.0341 11.2628C20.7513 10.5454 20.7516 9.37792 20.0352 8.65999ZM19.2054 10.4343C19.0789 10.5608 18.9108 10.6305 18.7321 10.6305H17.8446C17.521 10.6305 17.2587 10.8928 17.2587 11.2165V17.8061C17.2587 18.3481 16.8177 18.7891 16.2756 18.7891H13.6697V14.668C13.6697 13.4798 12.703 12.513 11.5147 12.513H9.63203C8.44367 12.513 7.47687 13.4798 7.47687 14.668V18.7891H4.87097C4.32898 18.7891 3.88784 18.3481 3.88784 17.8061V11.2165C3.88784 10.8928 3.62555 10.6305 3.30191 10.6305H2.42971C2.42056 10.6299 2.41155 10.6294 2.40225 10.6293C2.22768 10.6262 2.06396 10.557 1.94128 10.4341C1.68035 10.1732 1.68035 9.74856 1.94128 9.48748C1.94143 9.48748 1.94143 9.48732 1.94158 9.48717L1.94204 9.48671L10.1002 1.32889C10.2265 1.2024 10.3945 1.13281 10.5733 1.13281C10.752 1.13281 10.92 1.2024 11.0465 1.32889L19.2028 9.48503C19.204 9.48626 19.2054 9.48748 19.2066 9.4887C19.4662 9.75008 19.4657 10.1738 19.2054 10.4343Z" fill="#8C9395"/>
</svg>
