<svg width="21" height="20" viewBox="0 0 21 20" fill="none" xmlns="http://www.w3.org/2000/svg">
<g clip-path="url(#clip0_2429_802)">
<path d="M19.9959 8.69904C19.9955 8.69858 19.995 8.69812 19.9946 8.69766L11.8361 0.539551C11.4884 0.19165 11.0261 0 10.5343 0C10.0425 0 9.58013 0.191498 9.23223 0.539398L1.07808 8.69339C1.07534 8.69614 1.07259 8.69904 1.06984 8.70178C0.355733 9.42001 0.356954 10.5853 1.07335 11.3017C1.40066 11.6292 1.83294 11.8188 2.29513 11.8387C2.31389 11.8405 2.33281 11.8414 2.35189 11.8414H2.67705V17.8453C2.67705 19.0334 3.6437 20 4.83205 20H8.02388C8.34737 20 8.60982 19.7377 8.60982 19.4141V14.707C8.60982 14.1649 9.0508 13.7239 9.59295 13.7239H11.4756C12.0177 13.7239 12.4587 14.1649 12.4587 14.707V19.4141C12.4587 19.7377 12.721 20 13.0446 20H16.2365C17.4248 20 18.3915 19.0334 18.3915 17.8453V11.8414H18.693C19.1846 11.8414 19.647 11.6499 19.995 11.302C20.7122 10.5844 20.7125 9.41711 19.9959 8.69904Z" fill="#009ED7"/>
</g>
<defs>
<clipPath id="clip0_2429_802">
<rect width="20" height="20" fill="white" transform="translate(0.535156)"/>
</clipPath>
</defs>
</svg>
