<svg width="21" height="20" viewBox="0 0 21 20" fill="none" xmlns="http://www.w3.org/2000/svg">
<g clip-path="url(#clip0_2429_791)">
<path d="M8.03581 8.33333C5.73831 8.33333 3.86914 6.46417 3.86914 4.16667C3.86914 1.86917 5.73831 0 8.03581 0C10.3333 0 12.2025 1.86917 12.2025 4.16667C12.2025 6.46417 10.3333 8.33333 8.03581 8.33333ZM8.03581 0.833333C6.19747 0.833333 4.70247 2.32833 4.70247 4.16667C4.70247 6.005 6.19747 7.5 8.03581 7.5C9.87414 7.5 11.3691 6.005 11.3691 4.16667C11.3691 2.32833 9.87414 0.833333 8.03581 0.833333Z" fill="#8C9395"/>
<path d="M8.45182 17.5H0.951823C0.721823 17.5 0.535156 17.3133 0.535156 17.0833V13.75C0.535156 11.6825 2.21766 10 4.28516 10H11.7852C12.0152 10 12.2018 10.1867 12.2018 10.4167C12.2018 10.6467 12.0152 10.8333 11.7852 10.8333H4.28516C2.67682 10.8333 1.36849 12.1417 1.36849 13.75V16.6667H8.45182C8.68182 16.6667 8.86849 16.8533 8.86849 17.0833C8.86849 17.3133 8.68182 17.5 8.45182 17.5Z" fill="#8C9395"/>
<path d="M15.9518 20H15.1185C14.4293 20 13.8685 19.4392 13.8685 18.75V16.6667H11.7852C11.096 16.6667 10.5352 16.1058 10.5352 15.4167V14.5833C10.5352 13.8942 11.096 13.3333 11.7852 13.3333H13.8685V11.25C13.8685 10.5608 14.4293 10 15.1185 10H15.9518C16.641 10 17.2018 10.5608 17.2018 11.25V13.3333H19.2852C19.9743 13.3333 20.5352 13.8942 20.5352 14.5833V15.4167C20.5352 16.1058 19.9743 16.6667 19.2852 16.6667H17.2018V18.75C17.2018 19.4392 16.641 20 15.9518 20ZM11.7852 14.1667C11.5552 14.1667 11.3685 14.3533 11.3685 14.5833V15.4167C11.3685 15.6467 11.5552 15.8333 11.7852 15.8333H14.2852C14.5152 15.8333 14.7018 16.02 14.7018 16.25V18.75C14.7018 18.98 14.8885 19.1667 15.1185 19.1667H15.9518C16.1818 19.1667 16.3685 18.98 16.3685 18.75V16.25C16.3685 16.02 16.5552 15.8333 16.7852 15.8333H19.2852C19.5152 15.8333 19.7018 15.6467 19.7018 15.4167V14.5833C19.7018 14.3533 19.5152 14.1667 19.2852 14.1667H16.7852C16.5552 14.1667 16.3685 13.98 16.3685 13.75V11.25C16.3685 11.02 16.1818 10.8333 15.9518 10.8333H15.1185C14.8885 10.8333 14.7018 11.02 14.7018 11.25V13.75C14.7018 13.98 14.5152 14.1667 14.2852 14.1667H11.7852Z" fill="#8C9395"/>
</g>
<defs>
<clipPath id="clip0_2429_791">
<rect width="20" height="20" fill="white" transform="translate(0.535156)"/>
</clipPath>
</defs>
</svg>
