<svg width="25" height="24" viewBox="0 0 25 24" fill="none" xmlns="http://www.w3.org/2000/svg">
<g clip-path="url(#clip0_2254_1877)">
<path d="M19.001 24H18.4825C17.4818 24 16.6677 23.215 16.6677 22.25V20H14.3343C13.3336 20 12.5195 19.215 12.5195 18.25V17.75C12.5195 16.785 13.3336 16 14.3343 16H16.6677V13.75C16.6677 12.785 17.4818 12 18.4825 12H19.001C20.0018 12 20.8158 12.785 20.8158 13.75V16H23.1492C24.1499 16 24.964 16.785 24.964 17.75V18.25C24.964 19.215 24.1499 20 23.1492 20H20.8158V22.25C20.8158 23.215 20.0018 24 19.001 24Z" fill="#009ED7"/>
<path d="M9.40784 10C12.2715 10 14.593 7.76142 14.593 5C14.593 2.23858 12.2715 0 9.40784 0C6.54414 0 4.22266 2.23858 4.22266 5C4.22266 7.76142 6.54414 10 9.40784 10Z" fill="#009ED7"/>
<path d="M10.4446 18.25V17.75C10.4446 15.682 12.1889 14 14.3335 14H14.5927V13.75C14.5927 13.198 14.7244 12.678 14.9474 12.205C14.5015 12.085 14.041 12 13.5557 12H5.2594C2.39614 12 0.0742188 14.239 0.0742188 17V20.25C0.0742188 20.664 0.422663 21 0.851997 21H11.7098C10.9372 20.314 10.4446 19.34 10.4446 18.25Z" fill="#009ED7"/>
</g>
<defs>
<clipPath id="clip0_2254_1877">
<rect width="24.8889" height="24" fill="white" transform="translate(0.0742188)"/>
</clipPath>
</defs>
</svg>
