<svg width="21" height="20" viewBox="0 0 21 20" fill="none" xmlns="http://www.w3.org/2000/svg">
<g clip-path="url(#clip0_2429_776)">
<path d="M10.8848 0C7.97699 0 5.61133 2.35805 5.61133 5.25647C5.61133 8.15489 7.97699 10.5129 10.8848 10.5129C13.7925 10.5129 16.1582 8.15489 16.1582 5.25647C16.1582 2.35805 13.7925 0 10.8848 0ZM10.8848 9.34483C8.62316 9.34483 6.7832 7.51079 6.7832 5.25647C6.7832 3.00214 8.62316 1.1681 10.8848 1.1681C13.1464 1.1681 14.9863 3.00214 14.9863 5.25647C14.9863 7.51079 13.1464 9.34483 10.8848 9.34483Z" fill="#8C9395"/>
<path d="M17.4479 13.9466C16.0041 12.4854 14.0902 11.6807 12.0586 11.6807H9.71484C7.68328 11.6807 5.7693 12.4854 4.32555 13.9466C2.88887 15.4006 2.09766 17.32 2.09766 19.3512C2.09766 19.6738 2.36 19.9353 2.68359 19.9353H19.0898C19.4134 19.9353 19.6758 19.6738 19.6758 19.3512C19.6758 17.32 18.8846 15.4006 17.4479 13.9466ZM3.29531 18.7672C3.58887 15.4542 6.3559 12.8488 9.71484 12.8488H12.0586C15.4175 12.8488 18.1846 15.4542 18.4781 18.7672H3.29531Z" fill="#8C9395"/>
</g>
<defs>
<clipPath id="clip0_2429_776">
<rect width="20" height="19.9356" fill="white" transform="translate(0.884766)"/>
</clipPath>
</defs>
</svg>
