<svg width="25" height="24" viewBox="0 0 25 24" fill="none" xmlns="http://www.w3.org/2000/svg">
<g clip-path="url(#clip0_2254_1905)">
<path d="M12.6517 -0.000976562C9.19611 -0.000976562 6.38477 2.81037 6.38477 6.26595C6.38477 9.72153 9.19611 12.5329 12.6517 12.5329C16.1073 12.5329 18.9186 9.72153 18.9186 6.26595C18.9186 2.81037 16.1073 -0.000976562 12.6517 -0.000976562Z" fill="#009ED7"/>
<path d="M20.4472 16.6283C18.7315 14.8862 16.4569 13.9268 14.0426 13.9268H11.2573C8.843 13.9268 6.56844 14.8862 4.85269 16.6283C3.14535 18.3618 2.20508 20.6501 2.20508 23.0718C2.20508 23.4564 2.51685 23.7682 2.9014 23.7682H22.3985C22.7831 23.7682 23.0948 23.4564 23.0948 23.0718C23.0948 20.6501 22.1546 18.3618 20.4472 16.6283Z" fill="#009ED7"/>
</g>
<defs>
<clipPath id="clip0_2254_1905">
<rect width="23.7679" height="23.7679" fill="white" transform="translate(0.767578)"/>
</clipPath>
</defs>
</svg>
